<?xml version="1.0" standalone="no"?>
<!DOCTYPE svg PUBLIC "-//W3C//DTD SVG 20010904//EN"
 "http://www.w3.org/TR/2001/REC-SVG-20010904/DTD/svg10.dtd">
<svg version="1.0" xmlns="http://www.w3.org/2000/svg"
 width="1280.000000pt" height="348.000000pt" viewBox="0 0 1280.000000 348.000000"
 preserveAspectRatio="xMidYMid meet">

<g transform="translate(0.000000,348.000000) scale(0.100000,-0.100000)"
fill="#000000" stroke="none">
<path d="M0 1740 l0 -1740 6400 0 6400 0 0 1740 0 1740 -6400 0 -6400 0 0
-1740z m6569 1095 c55 -32 75 -67 79 -138 4 -68 -15 -123 -55 -159 -30 -28
-100 -48 -164 -48 l-59 0 0 -105 0 -105 -60 0 -60 0 0 291 0 291 143 -4 c120
-2 147 -6 176 -23z m2681 -16 c0 -32 -10 -54 -47 -107 -61 -88 -97 -140 -166
-238 -31 -45 -57 -84 -57 -88 0 -3 63 -6 140 -6 l140 0 0 -50 0 -50 -215 0
-215 0 0 43 c0 37 12 59 104 192 57 83 118 169 135 192 17 23 31 45 31 48 0 3
-61 5 -135 5 l-135 0 0 50 0 50 210 0 210 0 0 -41z m-1320 -44 l0 -44 63 -3
62 -3 0 -45 0 -45 -62 -3 -63 -3 0 -113 c0 -140 6 -151 78 -144 l52 5 0 -43
c0 -41 -2 -43 -37 -53 -81 -23 -157 -5 -190 45 -14 23 -19 55 -23 168 -4 116
-8 141 -20 142 -35 2 -40 5 -40 23 0 11 17 33 38 50 25 19 43 44 51 70 11 39
14 41 51 41 l40 0 0 -45z m-4778 24 c87 -3 257 -38 283 -59 6 -4 36 -16 68
-25 31 -9 57 -21 57 -26 0 -5 9 -9 20 -9 11 0 19 -5 18 -11 -2 -6 16 -18 40
-27 23 -9 42 -20 42 -24 0 -12 99 -111 124 -123 12 -6 22 -22 24 -37 2 -15 13
-33 26 -41 13 -9 29 -30 37 -49 7 -18 21 -42 31 -52 10 -11 18 -23 18 -27 0
-4 14 -37 30 -72 17 -36 30 -71 30 -79 0 -8 4 -18 9 -24 5 -5 24 -65 42 -134
30 -115 33 -137 32 -272 -1 -112 -4 -153 -15 -170 -8 -13 -21 -48 -28 -78 -7
-30 -19 -61 -27 -68 -7 -7 -13 -19 -13 -25 0 -7 -13 -27 -29 -46 -16 -19 -35
-46 -43 -60 -7 -14 -26 -37 -41 -50 -16 -13 -46 -40 -66 -60 -55 -52 -118
-101 -130 -101 -6 0 -11 -3 -11 -8 0 -4 -17 -16 -37 -27 -21 -11 -40 -22 -43
-26 -3 -3 -21 -14 -40 -25 -19 -10 -41 -25 -48 -32 -7 -6 -20 -12 -27 -12 -8
0 -34 -13 -58 -30 -25 -16 -49 -30 -54 -30 -4 0 -26 -10 -48 -21 -22 -12 -58
-28 -79 -36 -22 -7 -63 -24 -91 -37 -27 -14 -81 -36 -120 -51 -38 -15 -88 -35
-110 -45 -58 -26 -147 -61 -329 -131 -27 -10 -105 -32 -172 -49 -105 -26 -142
-30 -256 -31 -73 0 -144 2 -158 5 -14 2 -29 5 -35 5 -5 1 -25 14 -42 30 l-33
29 58 21 c31 12 82 25 112 30 423 69 834 236 1216 492 163 110 322 250 401
354 45 59 86 135 77 144 -2 2 -23 -9 -47 -26 -88 -62 -251 -103 -427 -108 -63
-2 -100 -1 -82 1 17 3 32 9 32 15 0 5 18 9 41 9 22 0 38 4 35 9 -3 5 7 11 22
14 49 10 177 52 180 59 2 5 10 8 17 8 25 0 142 76 208 135 72 64 142 158 153
203 4 15 11 32 16 38 4 6 11 47 15 90 7 94 -19 210 -70 313 -36 74 -131 175
-198 209 -24 12 -51 27 -59 32 -58 34 -204 84 -304 105 -334 68 -819 -22
-1079 -202 -93 -64 -187 -165 -229 -248 -11 -20 -30 -35 -55 -44 -62 -22 -180
-79 -263 -126 -68 -40 -123 -76 -308 -202 -50 -35 -54 -36 -70 -19 -16 17 -16
19 6 33 14 10 22 26 22 43 0 15 9 39 20 53 11 14 20 30 20 36 0 6 4 11 10 11
5 0 19 18 30 40 11 22 25 40 30 40 6 0 10 7 10 15 0 8 4 15 10 15 5 0 27 18
47 41 21 22 52 55 69 72 45 47 196 161 294 223 115 73 388 187 476 200 17 2
48 11 69 20 21 9 59 19 84 24 25 4 100 21 166 38 140 35 236 53 319 58 33 3
62 7 65 10 3 3 15 3 26 0 11 -3 50 -6 87 -7z m3881 -83 c38 -16 83 -59 105
-101 21 -41 21 -177 -1 -227 -66 -147 -296 -156 -377 -15 -26 45 -30 62 -30
130 0 108 38 180 111 211 43 19 150 20 192 2z m321 2 c16 -52 14 -51 53 -19
33 28 45 31 103 31 47 0 74 -6 97 -20 54 -32 63 -70 63 -261 l0 -169 -60 0
-60 0 0 145 c0 160 -10 198 -53 209 -14 3 -38 1 -54 -4 -50 -18 -57 -41 -61
-202 l-4 -148 -59 0 -59 0 0 225 0 225 45 0 c28 0 47 -5 49 -12z m1092 -9
c130 -63 153 -293 38 -387 -104 -86 -271 -56 -329 58 -20 40 -25 64 -25 125 0
42 6 90 14 108 17 40 61 86 101 103 48 21 151 18 201 -7z m1177 5 c18 -9 42
-26 55 -37 27 -25 52 -104 52 -164 l0 -43 -146 0 -146 0 7 -27 c9 -39 43 -72
80 -79 30 -5 120 7 158 21 15 6 17 1 17 -39 l0 -45 -57 -17 c-72 -21 -159 -14
-221 18 -67 33 -102 104 -102 202 1 106 39 178 115 212 42 19 149 18 188 -2z
m303 -19 c3 -19 9 -35 12 -35 3 0 21 14 39 32 27 26 42 32 89 36 51 4 56 3 51
-12 -4 -10 -7 -35 -7 -56 l0 -37 -52 -5 c-42 -4 -57 -11 -80 -37 -28 -31 -28
-32 -28 -166 l0 -135 -60 0 -60 0 0 225 0 225 45 0 c43 0 44 -1 51 -35z m556
20 c44 -18 92 -72 108 -120 7 -23 11 -68 8 -114 -7 -119 -53 -179 -158 -203
-73 -17 -149 2 -199 50 -89 84 -91 276 -4 354 51 46 174 63 245 33z m-7416
-176 c3 -5 17 -9 32 -10 23 0 24 -2 8 -8 -19 -7 -18 -8 5 -16 18 -7 4 -10 -56
-13 -89 -4 -168 5 -160 18 3 4 -1 11 -7 13 -8 3 -6 6 5 6 9 1 17 5 17 10 0 19
144 19 156 0z m664 -79 c110 -113 139 -229 84 -338 -28 -56 -65 -92 -96 -92
-17 0 -18 2 -4 15 8 8 18 25 21 38 4 12 13 36 20 52 45 100 19 247 -58 330
-22 24 -40 55 -32 55 4 0 33 -27 65 -60z m-1543 -100 c-72 -80 -92 -130 -92
-230 0 -77 3 -90 30 -135 l30 -50 5 51 c4 42 31 104 44 104 2 0 2 -19 -1 -42
-6 -65 6 -75 53 -45 49 32 185 46 335 35 128 -9 169 -22 169 -51 0 -12 9 -40
19 -63 37 -82 134 -108 220 -59 l44 25 51 -51 51 -51 -25 -14 c-19 -11 -20
-14 -5 -10 123 30 160 41 219 63 68 25 137 62 224 116 23 15 42 25 42 22 0
-11 -35 -45 -47 -45 -7 0 -13 -4 -13 -10 0 -5 -6 -10 -13 -10 -8 0 -24 -9 -37
-20 -13 -11 -29 -20 -36 -20 -7 0 -14 -4 -16 -9 -3 -9 -143 -61 -228 -84 -107
-30 -334 -50 -494 -44 -184 6 -279 28 -424 98 -171 82 -232 155 -240 285 -4
66 -2 80 24 131 28 58 138 182 150 170 4 -3 -14 -29 -39 -57z m922 -120 c201
-18 365 -73 467 -156 47 -39 53 -54 29 -74 -11 -9 -21 -7 -47 13 -18 14 -68
44 -110 66 -71 37 -111 52 -289 105 -62 18 -248 35 -301 28 -23 -3 -30 -1 -23
6 6 6 35 13 65 15 30 2 64 4 75 5 11 1 71 -3 134 -8z m88 -76 c-3 -3 -12 -4
-19 -1 -8 3 -5 6 6 6 11 1 17 -2 13 -5z m438 -164 c-24 -26 -32 -18 -9 9 10
11 20 18 23 16 2 -3 -4 -14 -14 -25z m-1705 -99 c0 -87 46 -206 119 -306 47
-65 81 -97 162 -150 179 -119 397 -175 681 -175 186 0 301 16 463 64 11 4 -8
-7 -43 -24 -229 -111 -637 -159 -926 -109 -67 11 -132 22 -146 23 -14 1 -45 8
-69 15 -24 7 -52 10 -62 8 -11 -3 -17 -2 -14 3 6 9 -19 20 -46 20 -27 0 -199
71 -199 82 0 5 -4 7 -10 3 -5 -3 -27 5 -48 19 -21 13 -47 25 -58 28 -10 2 -19
9 -19 16 0 6 -3 11 -7 10 -3 -2 -18 10 -32 25 -19 20 -26 39 -26 68 0 21 3 39
8 39 4 0 16 17 27 38 10 20 35 60 55 87 20 28 47 68 60 90 13 22 26 42 30 45
15 14 80 117 80 128 0 7 5 10 10 7 6 -3 10 -28 10 -54z m60 15 c0 -6 -7 -1
-15 10 -8 10 -15 23 -15 28 0 6 7 1 15 -10 8 -10 15 -23 15 -28z m-690 -105
c0 -5 -11 -11 -24 -13 -17 -4 -23 -1 -19 9 6 14 43 18 43 4z m4200 -426 l0
-165 -30 0 -30 0 0 165 0 165 30 0 30 0 0 -165z m760 150 c0 -26 -40 -58 -63
-51 -56 16 -77 18 -77 7 0 -6 -7 -11 -15 -11 -19 0 -20 34 -1 50 10 8 33 9 70
5 39 -5 56 -4 56 4 0 6 7 11 15 11 8 0 15 -7 15 -15z m860 -150 l0 -165 -24 0
c-13 0 -26 5 -28 11 -3 9 -9 9 -25 0 -36 -19 -82 -13 -108 14 -21 21 -25 33
-25 89 0 55 4 69 26 95 29 35 66 40 102 15 l22 -15 0 60 0 61 30 0 30 0 0
-165z m2330 0 l0 -165 -30 0 -30 0 0 165 0 165 30 0 30 0 0 -165z m364 159 c9
-3 16 -16 16 -29 0 -25 -21 -38 -45 -29 -18 7 -20 50 -2 57 6 3 13 6 14 6 1 1
8 -2 17 -5z m1814 -161 l2 -163 -23 0 c-13 0 -28 5 -35 12 -9 9 -15 9 -24 0
-13 -13 -66 -16 -93 -6 -26 10 -45 60 -45 119 0 50 4 60 30 87 31 30 55 34
103 13 15 -6 17 -1 17 42 0 57 5 65 40 61 l25 -3 3 -162z m-6519 131 c5 -5 5
-19 1 -31 -8 -19 -12 -20 -51 -12 -33 8 -46 7 -57 -5 -21 -21 -9 -42 38 -66
73 -37 95 -78 74 -135 -15 -38 -126 -60 -175 -35 -25 14 -27 66 -1 55 39 -16
98 -17 110 -2 15 18 6 44 -18 52 -10 3 -36 19 -59 35 -37 27 -41 34 -41 74 0
42 14 65 50 79 21 9 119 2 129 -9z m2644 -13 c42 -26 62 -70 61 -132 -4 -100
-65 -149 -187 -149 l-67 0 0 148 c0 82 3 152 8 156 15 16 148 0 185 -23z
m3175 -24 c3 -22 8 -27 33 -27 22 0 29 -5 29 -20 0 -16 -7 -20 -30 -20 l-30 0
0 -69 0 -70 33 -3 c24 -2 32 -8 32 -23 0 -17 -8 -20 -45 -23 -69 -4 -81 9 -87
106 -4 60 -10 82 -19 82 -20 0 -17 18 6 32 11 7 20 18 20 25 0 17 30 45 44 40
6 -2 12 -16 14 -30z m-5603 -32 c71 -34 82 -154 18 -205 -28 -22 -100 -27
-134 -10 -50 27 -66 136 -28 184 37 47 87 57 144 31z m691 2 c3 -3 3 -15 -1
-27 -6 -18 -12 -21 -37 -16 -16 3 -38 2 -47 -4 -24 -12 -33 -61 -19 -101 10
-30 12 -31 59 -27 46 5 49 4 49 -19 0 -18 -7 -25 -30 -29 -33 -7 -37 -16 -15
-34 34 -28 3 -70 -51 -70 -24 0 -34 5 -34 15 0 8 9 15 19 15 27 0 34 15 16 30
-8 7 -15 17 -15 22 0 5 -16 25 -36 43 -35 34 -36 36 -32 94 4 62 23 94 63 112
20 9 101 6 111 -4z m202 2 c77 -26 92 -156 25 -208 -55 -44 -152 -19 -173 45
-38 113 41 200 148 163z m299 -24 c16 -18 23 -39 23 -66 l0 -39 -75 0 c-41 0
-75 -4 -75 -8 0 -5 6 -16 13 -26 15 -20 55 -25 100 -13 24 7 27 5 27 -17 0
-28 -16 -36 -76 -36 -51 0 -98 21 -114 49 -14 27 -12 123 3 141 45 58 131 65
174 15z m224 18 c22 -22 -2 -41 -46 -40 -24 1 -46 -2 -47 -7 -2 -5 19 -21 46
-35 62 -32 79 -69 49 -110 -18 -24 -26 -26 -89 -26 -68 0 -69 0 -72 28 -3 26
-2 27 25 20 49 -13 77 -9 81 10 3 12 -7 22 -35 33 -53 22 -73 43 -73 74 0 26
20 51 50 63 21 9 100 1 111 -10z m626 -18 c16 -18 23 -39 23 -66 l0 -39 -74 0
c-70 0 -74 -1 -69 -21 7 -24 47 -42 77 -33 11 3 29 8 39 10 23 7 24 -41 1 -50
-26 -10 -102 -7 -129 6 -49 22 -71 111 -44 172 27 59 133 72 176 21z m679 3
c13 -13 26 -42 30 -65 l7 -43 -77 0 c-60 0 -76 -3 -76 -15 0 -29 44 -47 89
-36 22 5 41 8 42 7 0 0 2 -9 4 -19 5 -24 -25 -37 -88 -37 -45 0 -59 4 -80 26
-57 56 -41 176 26 204 35 15 97 4 123 -22z m236 14 c5 -5 6 -16 2 -25 -4 -13
-15 -15 -55 -10 -68 8 -65 -15 6 -50 53 -26 55 -28 55 -67 0 -54 -28 -72 -107
-68 -55 3 -58 5 -61 30 -3 26 -2 27 33 17 67 -19 105 16 45 41 -52 21 -80 49
-80 78 0 32 8 44 35 61 21 13 112 8 127 -7z m202 8 c31 -12 55 -47 63 -94 l6
-36 -81 0 c-74 0 -80 -1 -75 -19 7 -28 51 -42 96 -32 34 8 37 7 37 -14 0 -27
-17 -35 -75 -35 -81 0 -125 41 -125 117 0 89 74 144 154 113z m300 -11 c25
-20 26 -24 26 -120 l0 -99 -30 0 -30 0 0 83 c0 105 -23 134 -70 87 -16 -16
-20 -33 -20 -95 l0 -75 -30 0 -30 0 0 115 c0 115 0 115 24 115 13 0 26 -5 28
-12 3 -8 11 -7 28 5 33 23 72 21 104 -4z m156 -65 c13 -41 27 -71 31 -67 3 5
16 38 29 76 21 65 23 67 56 67 32 0 33 -1 24 -27 -6 -16 -15 -37 -20 -48 -5
-11 -20 -49 -33 -85 -23 -62 -26 -65 -59 -68 -31 -3 -35 0 -45 30 -6 18 -25
69 -42 112 -16 44 -28 82 -26 86 2 4 17 5 33 2 26 -3 31 -11 52 -78z m341 70
c64 -32 76 -144 22 -198 -21 -21 -35 -26 -74 -26 -69 0 -110 37 -116 106 -9
104 78 165 168 118z m796 1 c19 -13 24 -13 50 0 34 18 57 19 86 4 34 -18 37
-28 37 -131 l0 -98 -30 0 -30 0 0 83 c0 81 -9 107 -36 107 -32 0 -44 -31 -44
-111 l0 -79 -29 0 -28 0 -7 90 c-7 78 -10 90 -28 96 -37 11 -53 -19 -56 -106
l-4 -80 -29 0 -29 0 0 115 c0 115 0 115 24 115 13 0 26 -5 28 -12 3 -8 11 -7
28 5 30 21 69 22 97 2z m420 -20 c16 -18 23 -39 23 -66 l0 -39 -75 0 c-41 0
-75 -4 -75 -8 0 -5 6 -16 13 -26 15 -20 55 -25 100 -13 24 7 27 5 27 -17 0
-28 -21 -36 -93 -36 -40 0 -53 5 -78 29 -26 26 -29 36 -29 88 1 87 43 127 125
118 27 -2 47 -12 62 -30z m276 4 c13 -17 17 -41 17 -115 l0 -94 -29 0 -29 0
-3 85 c-4 85 -12 104 -46 105 -31 0 -43 -31 -43 -111 l0 -79 -35 0 -35 0 0
115 0 115 30 0 c17 0 30 -5 30 -10 0 -6 12 -4 28 5 35 20 92 12 115 -16z m415
20 c40 -14 65 -53 66 -104 2 -82 -36 -125 -109 -125 -78 0 -122 52 -113 134
10 86 73 124 156 95z m679 -24 c16 -18 23 -39 23 -66 l0 -39 -70 0 c-49 0 -70
-4 -70 -12 1 -36 38 -51 93 -39 34 8 37 7 37 -14 0 -13 -7 -26 -16 -29 -26
-10 -101 -7 -128 5 -78 36 -72 185 9 220 36 16 98 2 122 -26z m-6237 -46 c0
-82 11 -109 45 -109 34 0 45 27 45 109 l0 71 35 0 35 0 0 -115 0 -115 -29 0
c-16 0 -31 6 -34 13 -4 10 -7 10 -18 0 -21 -21 -92 -16 -117 7 -20 19 -22 31
-22 115 l0 95 30 0 30 0 0 -71z m3951 -4 c13 -41 27 -75 30 -75 3 0 16 34 29
75 23 74 24 75 58 75 18 0 32 -4 30 -8 -1 -4 -21 -56 -43 -115 l-40 -107 -35
0 c-33 0 -36 3 -51 48 -9 26 -28 77 -43 115 l-26 67 34 0 c33 0 34 -1 57 -75z
m249 -40 l0 -115 -30 0 -30 0 0 115 0 115 30 0 30 0 0 -115z m-1711 -394 c20
-13 -3 -51 -27 -44 -21 5 -47 -21 -37 -37 3 -5 17 -10 31 -10 17 0 24 -5 24
-20 0 -16 -7 -20 -30 -20 l-30 0 0 -95 0 -95 -30 0 -30 0 0 95 c0 88 -1 95
-20 95 -11 0 -20 6 -20 14 0 8 9 18 20 21 13 4 20 15 20 33 0 32 8 45 35 60
24 14 74 15 94 3z m-491 -17 c15 -4 22 -14 22 -30 0 -30 -12 -36 -46 -24 -16
6 -39 8 -52 5 -40 -10 -24 -45 36 -80 29 -17 57 -38 63 -46 10 -16 12 -60 3
-84 -10 -24 -58 -45 -106 -45 -71 0 -88 8 -88 42 0 24 3 29 17 24 42 -16 99
-18 111 -3 15 18 6 44 -18 52 -10 3 -36 19 -59 35 -37 27 -41 34 -41 74 0 36
5 48 26 65 27 21 84 27 132 15z m590 -47 c3 -22 8 -27 33 -27 22 0 29 -5 29
-20 0 -16 -7 -20 -30 -20 l-30 0 0 -70 0 -70 30 0 c25 0 30 -4 30 -26 0 -24
-2 -25 -52 -22 -65 4 -78 23 -78 121 0 53 -3 67 -15 67 -22 0 -18 28 5 35 11
3 20 12 20 20 0 18 30 47 44 42 6 -2 12 -16 14 -30z m-361 -27 c70 -25 90
-145 34 -201 -25 -24 -38 -29 -78 -29 -75 1 -113 41 -113 123 0 87 72 136 157
107z m1015 -20 c14 -18 18 -41 18 -116 0 -84 -2 -94 -18 -94 -10 0 -23 5 -29
11 -8 8 -17 8 -31 0 -24 -13 -81 -14 -99 -3 -21 13 -33 60 -23 86 11 31 32 42
93 51 49 8 53 11 38 34 -7 10 -21 12 -55 8 -27 -4 -47 -3 -47 3 -5 29 -2 35
21 42 45 13 113 2 132 -22z m238 0 c0 -25 -4 -30 -25 -30 -46 0 -65 -32 -65
-110 l0 -70 -30 0 -30 0 0 115 0 115 25 0 c16 0 25 -6 25 -15 0 -8 5 -15 10
-15 6 0 10 4 10 8 0 11 39 30 63 31 12 1 17 -7 17 -29z m216 -2 c12 -13 25
-42 29 -65 l7 -43 -80 0 c-74 0 -80 -1 -75 -19 7 -28 51 -42 96 -32 34 8 37 7
37 -14 0 -28 -17 -35 -84 -35 -84 0 -125 52 -113 141 6 43 28 75 62 90 33 14
96 3 121 -23z m-940 -54 c10 -42 20 -70 23 -63 3 8 12 41 21 74 15 59 16 60
52 63 32 3 38 0 43 -20 3 -13 11 -50 18 -83 l14 -60 19 80 c20 79 20 80 53 83
27 3 32 0 28 -12 -3 -8 -18 -60 -34 -115 l-28 -101 -36 0 -36 0 -18 86 c-10
47 -21 82 -25 77 -4 -4 -15 -43 -25 -85 l-17 -78 -34 0 c-33 0 -33 1 -54 73
-12 39 -25 85 -31 101 -15 47 -12 56 20 56 28 0 30 -3 47 -76z"/>
<path d="M6370 2674 l0 -86 57 4 c46 4 61 10 81 33 19 23 23 36 18 64 -8 51
-37 71 -102 71 l-54 0 0 -86z"/>
<path d="M6914 2633 c-41 -8 -58 -40 -62 -112 -6 -101 26 -151 95 -151 34 0
70 30 79 66 12 48 -1 153 -21 174 -22 21 -58 30 -91 23z"/>
<path d="M8300 2628 c-35 -19 -50 -54 -50 -121 0 -91 33 -137 98 -137 21 0 38
9 56 31 23 27 26 40 26 104 0 62 -4 78 -22 99 -28 31 -74 41 -108 24z"/>
<path d="M9483 2635 c-22 -15 -46 -69 -36 -79 4 -3 42 -6 85 -6 77 0 78 0 78
25 0 58 -78 94 -127 60z"/>
<path d="M10350 2627 c-35 -18 -50 -53 -50 -119 0 -64 13 -105 38 -124 28 -21
78 -17 109 10 27 23 28 28 28 110 0 72 -3 88 -20 105 -27 26 -74 34 -105 18z"/>
<path d="M1682 1535 c0 -16 2 -22 5 -12 2 9 2 23 0 30 -3 6 -5 -1 -5 -18z"/>
<path d="M6987 1392 c-34 -37 -15 -122 26 -122 34 0 47 19 47 66 0 65 -39 94
-73 56z"/>
<path d="M11490 1390 c-22 -22 -25 -54 -10 -94 7 -20 16 -26 40 -26 33 0 50
26 50 76 0 24 -31 64 -50 64 -5 0 -19 -9 -30 -20z"/>
<path d="M7630 1369 l0 -102 37 6 c56 10 78 37 78 101 0 69 -22 96 -77 96
l-38 0 0 -101z"/>
<path d="M5239 1394 c-14 -17 -18 -77 -6 -106 9 -25 63 -24 77 1 15 29 12 87
-6 105 -20 21 -48 20 -65 0z"/>
<path d="M6148 1399 c-13 -7 -18 -23 -18 -57 0 -52 12 -72 45 -72 32 0 45 20
45 66 0 61 -30 88 -72 63z"/>
<path d="M6400 1391 c-12 -24 -5 -29 43 -29 29 0 37 4 37 18 0 33 -63 42 -80
11z"/>
<path d="M7254 1396 c-9 -23 2 -33 38 -32 26 1 33 5 33 21 0 15 -8 21 -33 23
-22 2 -34 -2 -38 -12z"/>
<path d="M7941 1401 c-25 -16 -4 -41 34 -41 32 0 36 3 33 23 -3 24 -42 35 -67
18z"/>
<path d="M8407 1404 c-4 -4 -7 -16 -7 -26 0 -14 8 -18 41 -18 36 0 40 2 37 23
-2 16 -11 23 -33 25 -17 2 -34 0 -38 -4z"/>
<path d="M9196 1394 c-19 -18 -22 -94 -4 -112 7 -7 21 -12 33 -12 32 0 45 20
45 66 0 43 -19 74 -45 74 -7 0 -21 -7 -29 -16z"/>
<path d="M10381 1391 c-13 -24 -5 -31 35 -31 38 0 51 14 34 35 -17 21 -57 19
-69 -4z"/>
<path d="M11109 1394 c-7 -9 -14 -33 -14 -54 0 -44 19 -70 49 -70 33 0 46 19
46 66 0 64 -48 98 -81 58z"/>
<path d="M11757 1404 c-4 -4 -7 -15 -7 -24 0 -13 9 -17 40 -17 36 0 41 3 38
21 -2 15 -11 22 -33 24 -17 2 -34 0 -38 -4z"/>
<path d="M7779 793 c-19 -22 -18 -101 1 -113 25 -16 59 -11 70 9 35 67 -27
158 -71 104z"/>
<path d="M8768 719 c-33 -18 -17 -59 22 -59 16 0 40 31 40 51 0 21 -32 26 -62
8z"/>
<path d="M9217 804 c-4 -4 -7 -15 -7 -24 0 -13 10 -17 41 -18 37 -2 40 0 37
21 -2 16 -11 23 -33 25 -17 2 -34 0 -38 -4z"/>
</g>
</svg>
