<?xml version="1.0" standalone="no"?>
<!DOCTYPE svg PUBLIC "-//W3C//DTD SVG 20010904//EN"
 "http://www.w3.org/TR/2001/REC-SVG-20010904/DTD/svg10.dtd">
<svg version="1.0" xmlns="http://www.w3.org/2000/svg"
 width="1280.000000pt" height="322.000000pt" viewBox="0 0 1280.000000 322.000000"
 preserveAspectRatio="xMidYMid meet">

<g transform="translate(0.000000,322.000000) scale(0.100000,-0.100000)"
fill="#000000" stroke="none">
<path d="M0 1610 l0 -1610 6400 0 6400 0 0 1610 0 1610 -6400 0 -6400 0 0
-1610z m6548 1064 c84 -31 124 -134 88 -227 -29 -77 -82 -110 -198 -122 l-68
-7 0 -99 0 -99 -60 0 -60 0 0 283 c0 156 2 286 5 288 11 12 253 -3 293 -17z
m2702 -20 c0 -27 -14 -55 -62 -124 -35 -49 -94 -133 -132 -186 -38 -54 -71
-106 -74 -116 -4 -17 6 -18 137 -18 l141 0 0 -45 0 -45 -215 0 -215 0 0 38 c0
31 17 62 105 187 57 83 108 155 112 160 15 17 53 82 53 89 0 3 -58 6 -130 6
l-130 0 0 45 0 45 205 0 205 0 0 -36z m-1320 -49 l0 -45 60 0 60 0 0 -45 0
-45 -60 0 -60 0 0 -125 c0 -116 1 -125 21 -136 13 -6 39 -8 65 -4 l44 6 0 -40
c0 -38 -2 -41 -37 -50 -81 -23 -157 -5 -190 45 -15 23 -18 52 -20 164 -3 132
-3 135 -25 138 -51 8 -48 49 5 74 25 12 35 26 46 62 13 45 14 46 52 46 l39 0
0 -45z m-4730 25 c196 -29 288 -60 400 -134 30 -20 58 -36 62 -36 6 0 47 -40
140 -137 17 -17 28 -36 24 -41 -3 -5 5 -12 17 -16 23 -5 47 -42 47 -72 0 -8 7
-17 16 -21 8 -3 13 -12 10 -20 -3 -8 -2 -11 4 -8 5 3 14 -13 21 -35 7 -22 18
-45 26 -51 7 -6 13 -21 13 -32 0 -11 3 -17 7 -13 7 7 57 -150 73 -234 46 -229
35 -376 -41 -535 -10 -22 -19 -46 -19 -52 0 -7 -4 -13 -9 -13 -5 0 -23 -21
-39 -47 -40 -63 -105 -131 -183 -191 -63 -47 -159 -111 -189 -125 -20 -9 -54
-31 -60 -38 -9 -11 -212 -109 -226 -109 -8 0 -14 -4 -14 -8 0 -4 -17 -14 -37
-22 -21 -7 -69 -27 -108 -45 -38 -18 -92 -40 -120 -51 -27 -10 -61 -24 -75
-31 -14 -7 -31 -13 -38 -13 -7 0 -20 -4 -30 -10 -50 -27 -230 -97 -327 -127
-44 -13 -89 -28 -100 -33 -11 -5 -36 -11 -55 -13 -19 -3 -64 -10 -100 -17 -59
-10 -182 -8 -284 4 -51 7 -87 31 -79 53 5 12 3 14 -8 8 -12 -7 -12 -6 -1 7 7
8 36 20 65 26 28 6 117 25 197 41 260 54 459 122 720 248 371 179 739 464 839
652 18 34 31 65 28 67 -2 3 -25 -9 -51 -26 -25 -18 -72 -41 -104 -52 -82 -29
-242 -58 -319 -58 -61 0 -65 1 -47 14 11 9 29 12 43 9 14 -4 22 -2 18 4 -3 5
42 24 101 43 170 53 257 104 372 220 146 146 181 300 114 510 -44 140 -142
258 -262 317 -31 15 -58 31 -60 36 -2 4 -10 7 -18 7 -8 0 -31 8 -52 19 -20 10
-82 30 -137 44 -377 99 -907 2 -1195 -218 -67 -51 -110 -99 -162 -181 -32 -51
-46 -64 -86 -79 -120 -45 -418 -218 -554 -322 -31 -23 -61 -43 -67 -43 -5 0
-14 -7 -19 -16 -5 -9 -15 -15 -22 -12 -10 3 -9 8 4 20 9 9 16 24 16 32 0 9 9
25 20 36 12 12 18 25 15 30 -8 13 45 104 86 147 19 21 55 63 79 93 25 30 52
60 60 66 8 7 25 20 36 30 40 36 158 131 205 167 8 7 31 21 50 31 18 11 36 23
39 26 5 7 196 100 270 132 19 9 73 25 120 37 47 12 99 28 115 35 17 8 75 23
130 36 55 12 138 30 185 40 232 52 392 67 510 50z m3809 -75 c98 -34 141 -101
141 -217 0 -90 -22 -142 -78 -186 -76 -60 -212 -52 -281 17 -83 83 -83 259 1
343 26 26 103 57 144 58 17 0 50 -7 73 -15z m578 -6 c70 -34 77 -57 81 -256
l4 -173 -61 0 -61 0 0 151 c0 87 -4 159 -11 170 -16 30 -56 42 -96 28 -53 -17
-63 -53 -63 -214 l0 -135 -60 0 -60 0 0 220 0 220 44 0 c40 0 45 -3 55 -32
l11 -32 29 28 c51 49 120 58 188 25z m855 -5 c44 -23 62 -42 88 -93 19 -37 21
-57 18 -127 -3 -72 -7 -88 -33 -126 -72 -102 -220 -117 -321 -31 -67 56 -86
201 -39 291 26 51 54 75 113 97 44 18 130 12 174 -11z m1143 15 c80 -22 121
-71 136 -159 15 -91 16 -90 -142 -90 l-139 0 0 -26 c0 -15 12 -38 30 -56 30
-29 32 -30 108 -25 42 2 87 8 100 12 20 7 22 4 22 -33 0 -35 -4 -41 -32 -53
-20 -9 -69 -14 -124 -14 -88 0 -92 1 -136 35 -57 43 -79 86 -85 166 -10 120
38 205 134 240 47 16 77 17 128 3z m525 -44 l0 -55 -34 0 c-19 0 -47 -5 -62
-10 -51 -20 -59 -43 -64 -190 l-5 -135 -57 -3 -58 -3 0 221 0 220 45 0 c43 0
44 -1 51 -35 8 -42 13 -43 45 -9 29 31 73 52 112 53 26 1 27 0 27 -54z m346
40 c29 -8 63 -28 81 -47 95 -98 80 -293 -28 -365 -37 -25 -52 -28 -120 -28
-70 0 -81 3 -120 30 -61 43 -93 109 -93 194 0 111 45 181 141 216 50 18 79 18
139 0z m-7416 -175 c0 -5 13 -10 29 -10 18 0 41 -10 58 -25 l28 -26 -120 7
c-66 3 -121 10 -123 15 -2 5 -10 9 -18 9 -23 0 -11 25 16 31 41 11 130 10 130
-1z m692 -86 c72 -71 100 -129 106 -216 3 -54 0 -76 -17 -110 -22 -46 -91
-121 -91 -99 0 7 -4 9 -10 6 -14 -9 -13 -3 14 47 31 59 50 150 43 211 -6 43
-50 137 -80 170 -64 67 -35 60 35 -9z m-1536 -85 c-25 -28 -60 -79 -77 -115
-29 -59 -31 -70 -27 -141 4 -62 10 -87 31 -120 36 -57 43 -58 38 -7 -2 35 2
53 23 84 30 46 40 51 26 14 -12 -31 -13 -65 -1 -83 7 -11 18 -8 56 15 47 27
51 28 214 28 103 1 187 -4 222 -12 l57 -13 7 -45 c8 -56 50 -106 103 -124 34
-11 47 -10 88 4 26 9 55 23 65 32 16 14 21 12 62 -28 24 -24 49 -52 54 -62 10
-17 15 -18 59 -7 147 37 311 117 413 200 25 20 40 28 35 19 -15 -27 -151 -126
-218 -158 -98 -47 -288 -97 -416 -110 -148 -15 -413 -8 -505 13 -138 31 -267
89 -357 159 -57 44 -98 136 -98 217 0 69 13 103 68 185 22 32 105 106 119 106
3 0 -16 -23 -41 -51z m1004 -143 c116 -17 228 -53 306 -100 86 -52 118 -81
111 -100 -8 -20 -37 -32 -46 -19 -19 28 -159 104 -238 129 -215 67 -298 83
-445 85 -71 2 -84 4 -53 9 69 12 266 10 365 -4z m-163 -42 c-3 -3 -12 -4 -19
-1 -8 3 -5 6 6 6 11 1 17 -2 13 -5z m-1064 -229 c4 -27 3 -35 -3 -25 -5 8 -10
28 -10 44 0 39 6 30 13 -19z m-43 -65 c1 -101 78 -265 170 -361 113 -117 328
-212 550 -245 210 -30 533 -11 684 41 62 21 28 0 -44 -28 -127 -49 -238 -78
-400 -103 -132 -21 -436 -15 -545 11 -38 9 -87 17 -107 17 -21 1 -35 4 -33 8
2 4 -8 7 -23 7 -29 0 -169 37 -217 58 -16 7 -41 16 -55 20 -13 4 -30 14 -38
22 -8 8 -27 17 -43 20 -15 3 -30 12 -33 20 -3 8 -10 12 -15 8 -6 -3 -35 11
-66 30 -43 28 -57 43 -62 68 -4 18 -6 37 -4 42 2 6 4 16 5 23 1 7 12 19 24 28
12 8 22 22 22 31 0 15 106 178 177 272 18 24 33 53 33 65 0 17 2 18 10 6 5 -8
10 -35 10 -60z m3570 -500 l0 -160 -30 0 -30 0 0 160 0 160 30 0 30 0 0 -160z
m727 148 c8 21 25 13 21 -9 -5 -36 -30 -45 -79 -29 -33 11 -43 12 -47 2 -2 -7
-10 -12 -18 -12 -11 0 -11 5 -2 25 13 29 31 34 82 20 30 -8 40 -7 43 3z m893
-148 c0 -147 -1 -160 -18 -160 -10 0 -23 5 -28 10 -7 7 -20 5 -41 -5 -68 -34
-123 17 -123 112 0 67 34 113 85 113 18 0 38 -7 45 -15 19 -23 29 -9 23 35 -7
52 1 70 32 70 l25 0 0 -160z m2330 0 l0 -160 -30 0 -30 0 0 153 c0 85 3 157 7
160 3 4 17 7 30 7 l23 0 0 -160z m364 154 c9 -3 16 -14 16 -24 0 -20 -33 -36
-50 -25 -14 9 -12 42 3 48 6 3 13 6 14 6 1 1 8 -2 17 -5z m1808 -81 c1 -49 2
-119 2 -158 -1 -64 -3 -70 -23 -73 -12 -2 -24 3 -27 12 -5 13 -10 12 -34 -6
-71 -52 -146 31 -125 138 12 68 90 111 125 69 22 -27 30 -16 30 45 0 57 1 60
25 60 25 0 25 -1 27 -87z m-6534 61 c23 -6 27 -20 14 -41 -5 -8 -19 -9 -44 -4
-27 6 -42 5 -57 -6 -29 -19 -13 -46 42 -74 23 -12 50 -31 60 -42 36 -41 11
-105 -51 -128 -28 -11 -99 -3 -119 13 -20 16 -16 50 5 44 81 -24 125 -18 120
17 -2 12 -18 31 -37 42 -92 55 -116 111 -66 160 25 25 79 33 133 19z m2660
-19 c87 -52 81 -211 -9 -258 -25 -13 -52 -17 -104 -15 l-70 3 -3 134 c-1 74 0
141 3 149 8 21 141 11 183 -13z m3182 -31 c0 -9 11 -14 30 -14 25 0 30 -4 30
-25 0 -22 -4 -25 -33 -25 l-33 0 2 -62 c2 -35 3 -66 4 -70 0 -5 14 -8 30 -8
23 0 30 -5 30 -19 0 -37 -90 -38 -110 -1 -6 10 -10 50 -10 89 0 56 -3 71 -15
71 -8 0 -15 7 -15 15 0 8 5 15 10 15 6 0 16 12 23 28 6 15 16 30 21 34 13 9
36 -10 36 -28z m-5599 -31 c37 -22 53 -62 46 -119 -6 -53 -27 -80 -77 -95 -80
-24 -147 40 -137 130 9 85 94 127 168 84z m299 -62 c0 -99 5 -111 41 -111 39
0 49 24 49 114 l0 76 30 0 30 0 0 -115 c0 -109 -1 -115 -20 -115 -11 0 -23 7
-27 15 -5 14 -8 14 -25 -2 -12 -11 -35 -18 -60 -18 -62 0 -78 28 -78 143 l0
92 30 0 30 0 0 -79z m378 71 c27 -18 1 -42 -44 -42 -49 0 -64 -17 -64 -73 0
-49 28 -71 80 -63 35 5 40 4 40 -13 0 -13 -11 -23 -36 -31 -33 -11 -34 -13
-20 -29 25 -28 20 -58 -11 -69 -35 -12 -66 -2 -54 17 5 7 13 11 19 7 18 -11
26 16 8 29 -9 7 -15 17 -14 22 2 5 -13 23 -32 40 -33 29 -35 35 -35 93 0 57 2
64 33 91 25 22 42 29 75 29 23 0 48 -4 55 -8z m215 -3 c59 -27 77 -133 31
-188 -66 -78 -194 -26 -194 79 0 89 84 145 163 109z m276 -10 c24 -23 41 -59
41 -90 0 -17 -8 -19 -75 -19 -67 0 -75 -2 -75 -19 0 -29 25 -43 77 -41 65 2
65 2 53 -19 -22 -41 -131 -33 -169 12 -37 46 -17 161 32 185 38 18 91 14 116
-9z m231 11 c35 -18 13 -40 -37 -37 -59 3 -67 -17 -16 -40 57 -27 73 -44 73
-79 0 -53 -52 -80 -130 -68 -34 6 -40 10 -40 31 0 18 4 23 18 19 54 -16 73
-17 87 -6 24 20 18 28 -35 55 -73 37 -86 69 -45 110 26 27 89 34 125 15z m631
-19 c21 -22 29 -39 29 -65 l0 -36 -75 0 c-79 0 -89 -7 -62 -43 13 -19 57 -25
100 -14 26 7 28 5 25 -15 -4 -29 -63 -43 -120 -28 -54 15 -81 58 -75 124 4 40
11 55 36 78 44 40 101 39 142 -1z m678 2 c18 -18 31 -42 34 -65 l6 -38 -75 0
c-66 0 -74 -2 -74 -19 0 -37 44 -53 103 -38 25 7 28 5 25 -14 -7 -48 -117 -48
-160 -1 -33 35 -41 73 -28 122 21 78 112 106 169 53z m225 21 c9 -3 16 -15 16
-25 0 -18 -5 -19 -50 -13 -45 6 -50 5 -50 -13 0 -14 15 -26 50 -42 57 -26 73
-58 49 -100 -17 -30 -60 -44 -116 -36 -37 5 -43 9 -43 31 0 22 3 24 28 17 15
-4 38 -7 52 -8 38 0 33 36 -8 57 -74 36 -92 79 -50 118 22 20 87 28 122 14z
m245 -23 c24 -22 31 -38 31 -65 l0 -36 -75 0 c-79 0 -89 -7 -62 -44 11 -16 24
-18 71 -14 53 4 57 3 54 -16 -2 -16 -14 -23 -49 -30 -106 -20 -183 79 -134
174 34 66 111 81 164 31z m139 13 c9 -16 11 -16 33 0 36 25 84 21 108 -10 18
-23 21 -41 21 -115 l0 -89 -30 0 -29 0 -3 88 -3 87 -30 3 c-42 5 -55 -19 -55
-105 l0 -73 -30 0 -30 0 0 115 c0 107 1 115 20 115 10 0 23 -7 28 -16z m288
-64 c15 -44 30 -80 34 -80 3 0 17 35 31 78 23 70 28 77 53 80 35 4 34 -1 -17
-133 -33 -84 -37 -90 -66 -93 -34 -4 -29 -12 -81 121 -36 95 -37 107 -6 107
21 0 27 -10 52 -80z m337 69 c40 -21 57 -51 57 -106 0 -44 -5 -58 -28 -85 -59
-66 -172 -29 -187 61 -16 96 76 172 158 130z m306 -71 c14 -42 28 -79 32 -82
3 -3 17 33 33 79 24 76 30 85 52 85 13 0 24 -6 24 -13 0 -7 -17 -58 -39 -113
-38 -97 -39 -99 -71 -99 -33 0 -34 1 -71 100 -46 122 -47 127 -12 123 23 -3
29 -12 52 -80z m251 -33 l0 -115 -30 0 -30 0 0 115 0 115 30 0 30 0 0 -115z
m118 99 c9 -16 11 -16 33 0 29 20 68 21 97 0 20 -14 24 -14 44 0 31 22 80 20
106 -4 20 -19 22 -31 22 -115 l0 -95 -30 0 -29 0 -3 88 -3 87 -32 3 c-38 4
-41 -5 -45 -108 -3 -63 -4 -65 -30 -68 l-28 -3 0 68 c0 96 -6 113 -41 113 -38
0 -49 -24 -49 -109 l0 -71 -30 0 -30 0 0 115 c0 107 1 115 20 115 10 0 23 -7
28 -16z m523 6 c24 -13 49 -61 49 -95 0 -25 -1 -25 -75 -25 -67 0 -75 -2 -75
-19 0 -30 25 -43 79 -40 28 2 51 0 51 -4 0 -4 0 -13 0 -21 0 -24 -85 -30 -128
-9 -44 22 -62 53 -62 112 0 81 91 138 161 101z m153 -5 c5 -14 9 -14 35 0 43
22 78 19 106 -10 23 -22 25 -32 25 -115 l0 -90 -30 0 -30 0 0 74 c0 92 -5 106
-39 106 -43 0 -51 -17 -51 -102 l0 -78 -30 0 -30 0 0 115 c0 106 1 115 19 115
10 0 22 -7 25 -15z m575 1 c34 -18 51 -54 51 -111 0 -118 -155 -155 -205 -48
-51 107 50 212 154 159z m660 -15 c23 -22 31 -38 31 -65 l0 -35 -72 -3 c-76
-3 -91 -14 -62 -43 14 -13 30 -16 71 -13 50 4 54 3 51 -16 -7 -48 -140 -40
-173 10 -77 118 54 258 154 165z m-3741 -503 c-2 -13 -9 -22 -17 -20 -25 5
-51 -9 -51 -29 0 -15 7 -19 31 -19 26 0 30 -3 27 -22 -2 -17 -11 -24 -30 -26
l-28 -3 0 -90 0 -90 -27 3 c-28 3 -28 3 -31 91 -2 68 -6 87 -17 87 -19 0 -20
29 -1 36 7 3 16 22 20 43 7 43 30 59 89 60 34 1 38 -1 35 -21z m-490 -4 c23
-7 27 -20 14 -41 -6 -9 -17 -10 -40 -4 -48 14 -74 4 -70 -28 2 -18 13 -31 38
-43 19 -10 48 -30 64 -45 24 -22 27 -32 22 -62 -8 -51 -38 -71 -111 -71 -63 0
-85 11 -85 42 0 21 1 21 58 8 90 -21 114 33 33 75 -83 41 -105 102 -56 150 25
25 79 33 133 19z m582 -39 c0 -22 4 -25 36 -25 31 0 35 -3 32 -22 -2 -18 -11
-24 -36 -26 l-33 -3 3 -67 3 -67 33 -3 c25 -3 32 -8 30 -20 -3 -13 -14 -17
-53 -17 -43 0 -51 3 -62 25 -8 15 -12 50 -11 88 2 43 -1 62 -9 62 -20 0 -27
22 -9 32 9 5 23 22 31 38 19 37 45 40 45 5z m-347 -37 c40 -21 51 -40 55 -99
4 -54 2 -60 -26 -89 -26 -25 -38 -30 -80 -30 -60 0 -97 29 -107 84 -10 49 1
83 35 117 31 32 83 39 123 17z m523 -78 c20 -75 23 -82 29 -55 4 17 14 56 22
88 15 56 17 58 46 55 28 -3 31 -8 48 -68 10 -36 19 -76 19 -90 l2 -25 8 25 c4
14 16 55 26 93 16 63 19 67 45 67 l28 0 -19 -67 c-47 -164 -44 -158 -80 -158
l-33 0 -21 90 c-12 50 -24 86 -27 80 -3 -5 -12 -39 -19 -75 -17 -87 -25 -100
-60 -100 -26 0 -30 5 -40 43 -6 23 -20 71 -31 106 -24 81 -24 83 8 79 26 -3
29 -9 49 -88z m479 65 c23 -22 25 -32 25 -115 0 -83 -2 -90 -20 -90 -10 0 -23
7 -28 16 -8 14 -10 14 -21 0 -18 -21 -94 -21 -115 0 -22 21 -20 77 3 98 10 9
41 19 70 23 40 4 51 10 51 24 0 22 -29 32 -73 24 -26 -5 -36 -3 -40 9 -9 22
20 35 76 36 38 0 53 -5 72 -25z m142 5 c3 -11 7 -20 10 -20 2 0 13 9 25 20 12
11 32 20 46 20 35 0 26 -41 -11 -51 -50 -14 -57 -26 -57 -105 l0 -74 -30 0
-30 0 0 115 c0 110 1 115 21 115 12 0 23 -8 26 -20z m314 -9 c21 -22 29 -39
29 -65 l0 -36 -76 0 c-74 0 -75 -1 -68 -22 10 -34 23 -39 82 -35 49 3 53 2 50
-17 -3 -18 -11 -21 -68 -24 -58 -2 -68 0 -92 23 -33 30 -44 81 -28 129 25 78
115 102 171 47z"/>
<path d="M6370 2509 l0 -92 58 6 c69 7 102 37 102 93 0 55 -36 84 -105 84
l-55 0 0 -91z"/>
<path d="M6919 2473 c-48 -7 -64 -36 -67 -127 -3 -70 -1 -85 17 -108 26 -32
72 -44 110 -28 35 14 50 42 52 100 3 84 -1 109 -23 134 -25 27 -49 35 -89 29z"/>
<path d="M8300 2467 c-37 -19 -50 -54 -50 -134 0 -86 21 -120 82 -130 32 -5
41 -1 68 25 28 29 30 35 30 111 0 69 -3 83 -22 105 -28 30 -75 40 -108 23z"/>
<path d="M9468 2463 c-9 -10 -20 -30 -23 -45 l-7 -28 85 0 c47 0 88 4 91 8 3
5 -3 24 -12 43 -16 31 -21 34 -68 37 -38 2 -54 -1 -66 -15z"/>
<path d="M10349 2469 c-35 -13 -54 -59 -54 -135 0 -77 18 -111 65 -125 45 -14
88 3 107 41 15 30 17 138 3 175 -6 15 -24 32 -45 40 -39 17 -40 17 -76 4z"/>
<path d="M6981 1236 c-17 -21 -10 -106 10 -119 9 -5 27 -7 41 -4 30 8 43 53
30 102 -7 24 -15 31 -39 33 -17 2 -35 -3 -42 -12z"/>
<path d="M11480 1231 c-5 -11 -10 -34 -10 -51 0 -47 16 -70 50 -70 34 0 50 23
50 70 0 47 -16 70 -50 70 -19 0 -33 -7 -40 -19z"/>
<path d="M7620 1220 l0 -100 44 0 c59 0 86 32 86 102 0 65 -30 98 -90 98 l-40
0 0 -100z"/>
<path d="M5230 1231 c-5 -11 -10 -34 -10 -51 0 -47 16 -70 50 -70 19 0 33 7
40 19 14 27 13 94 -2 109 -19 19 -66 15 -78 -7z"/>
<path d="M6130 1231 c-15 -29 -12 -87 6 -105 18 -19 55 -21 72 -4 13 13 16 85
6 112 -9 24 -71 21 -84 -3z"/>
<path d="M6402 1248 c-7 -7 -12 -19 -12 -28 0 -12 9 -14 45 -12 45 4 56 17 33
40 -7 7 -21 12 -33 12 -12 0 -26 -5 -33 -12z"/>
<path d="M7255 1244 c-23 -24 -13 -39 26 -39 61 -1 73 10 43 39 -20 21 -48 20
-69 0z"/>
<path d="M7944 1252 c-6 -4 -13 -15 -17 -24 -7 -19 12 -28 55 -24 36 2 42 10
28 35 -11 21 -45 28 -66 13z"/>
<path d="M8405 1238 c-15 -23 -15 -23 31 -26 54 -4 59 -1 44 27 -14 28 -55 27
-75 -1z"/>
<path d="M9184 1238 c-12 -19 -8 -96 6 -112 16 -20 54 -20 70 -1 13 16 17 96
5 114 -9 15 -72 14 -81 -1z"/>
<path d="M10385 1244 c-23 -24 -13 -39 26 -40 47 -1 59 5 52 24 -13 35 -51 42
-78 16z"/>
<path d="M11099 1229 c-14 -27 -6 -99 13 -110 19 -12 52 -11 66 3 13 13 16 85
6 112 -10 25 -71 21 -85 -5z"/>
<path d="M11762 1247 c-25 -29 -18 -40 26 -40 51 1 57 5 42 32 -12 23 -52 28
-68 8z"/>
<path d="M7769 623 c-13 -33 -5 -93 13 -105 23 -14 57 -9 68 11 11 22 13 80 4
105 -4 10 -18 16 -40 16 -28 0 -36 -5 -45 -27z"/>
<path d="M8785 571 c-23 -5 -31 -12 -33 -34 -3 -25 -1 -27 31 -27 23 0 37 6
41 16 8 22 8 54 -1 53 -5 -1 -21 -4 -38 -8z"/>
<path d="M9216 644 c-25 -25 -19 -32 30 -36 51 -4 60 2 44 32 -13 24 -52 26
-74 4z"/>
</g>
</svg>
