<?xml version="1.0" standalone="no"?>
<!DOCTYPE svg PUBLIC "-//W3C//DTD SVG 20010904//EN"
 "http://www.w3.org/TR/2001/REC-SVG-20010904/DTD/svg10.dtd">
<svg version="1.0" xmlns="http://www.w3.org/2000/svg"
 width="1280.000000pt" height="396.000000pt" viewBox="0 0 1280.000000 396.000000"
 preserveAspectRatio="xMidYMid meet">

<g transform="translate(0.000000,396.000000) scale(0.100000,-0.100000)"
fill="#000000" stroke="none">
<path d="M0 1980 l0 -1980 6400 0 6400 0 0 1980 0 1980 -6400 0 -6400 0 0
-1980z m3205 965 c49 -3 103 -10 120 -15 16 -5 46 -13 65 -19 82 -24 153 -53
173 -71 11 -11 41 -30 65 -42 71 -34 260 -243 248 -273 -3 -9 0 -12 10 -8 8 3
14 -1 14 -10 0 -9 6 -22 13 -29 11 -12 25 -42 86 -181 12 -26 30 -84 42 -130
11 -45 25 -100 32 -122 17 -58 13 -314 -6 -351 -8 -16 -20 -53 -27 -81 -6 -29
-16 -53 -21 -53 -4 0 -13 -18 -19 -40 -6 -22 -14 -40 -18 -40 -4 0 -18 -17
-32 -38 -38 -57 -192 -204 -249 -236 -9 -5 -22 -16 -30 -24 -8 -8 -27 -19 -43
-24 -15 -6 -28 -14 -28 -19 0 -5 -5 -9 -11 -9 -5 0 -51 -24 -102 -53 -105 -59
-103 -59 -254 -127 -62 -27 -117 -50 -122 -50 -6 0 -38 -13 -73 -29 -100 -46
-210 -91 -220 -91 -5 0 -41 -15 -81 -34 -40 -19 -99 -42 -132 -51 -33 -9 -82
-24 -110 -32 -140 -43 -198 -54 -295 -58 -58 -2 -123 0 -145 5 -22 5 -53 12
-68 15 -15 3 -25 10 -22 15 3 5 -6 12 -20 16 -40 10 -27 36 25 51 25 7 101 25
170 38 264 53 429 105 666 212 339 152 707 406 859 594 49 61 111 166 102 175
-2 2 -19 -8 -38 -22 -86 -63 -264 -111 -449 -118 -70 -3 -98 -2 -72 3 24 4 47
13 52 21 4 7 12 10 18 6 5 -3 23 1 40 10 17 8 63 24 101 34 69 19 184 73 248
116 104 70 197 179 235 277 33 82 30 228 -6 332 -15 44 -39 100 -53 125 -35
60 -138 160 -190 185 -24 11 -43 23 -43 28 0 4 -7 7 -15 7 -9 0 -30 8 -48 17
-61 33 -193 72 -311 93 -88 15 -303 12 -425 -5 -406 -59 -684 -213 -824 -457
-14 -24 -31 -38 -49 -42 -87 -17 -441 -225 -633 -371 -10 -8 -28 -15 -39 -15
-18 0 -17 2 7 28 15 15 34 53 43 82 9 30 22 62 30 71 8 8 14 19 14 24 0 10
104 129 175 200 57 58 188 166 255 210 25 16 47 32 50 35 3 3 15 11 27 18 147
82 298 145 433 182 47 12 94 26 105 31 11 4 49 15 85 23 36 8 95 22 131 30 36
9 72 16 81 16 9 0 18 4 20 9 2 5 28 11 58 15 30 3 93 12 140 20 47 7 110 11
140 10 30 -2 95 -6 145 -9z m-117 -261 c35 -9 61 -22 59 -28 -9 -27 -267 -13
-267 15 0 5 0 12 0 17 -1 9 63 18 110 15 19 -1 63 -9 98 -19z m638 -68 c82
-82 114 -148 114 -234 0 -71 -19 -118 -70 -169 -36 -37 -45 -40 -54 -17 -4 9
-2 13 5 8 7 -4 10 -1 7 7 -3 8 5 34 18 59 33 63 41 152 20 221 -14 50 -28 73
-96 162 -37 47 -10 30 56 -37z m-1507 -63 c-8 -10 -30 -36 -48 -57 -53 -63
-81 -136 -81 -211 0 -68 24 -138 58 -169 16 -14 17 -12 14 23 -3 34 28 121 43
121 3 0 3 -17 -1 -37 -3 -21 -2 -48 3 -60 l8 -23 39 26 c25 17 58 29 90 32 95
9 311 3 361 -10 46 -12 50 -16 57 -52 12 -58 38 -94 83 -116 55 -27 92 -25
150 5 l47 26 42 -38 c53 -47 62 -63 45 -75 -23 -16 48 1 161 38 58 19 144 57
193 85 113 65 135 59 26 -8 -89 -54 -278 -124 -384 -142 -54 -9 -253 -27 -330
-30 -71 -3 -275 21 -340 40 -77 22 -109 35 -204 82 -180 90 -249 259 -169 410
33 60 119 157 140 157 7 0 5 -7 -3 -17z m4292 -24 c66 -37 84 -68 84 -148 0
-127 -61 -188 -200 -198 l-75 -6 0 -103 0 -104 -60 0 -60 0 0 296 0 297 134
-5 c117 -5 139 -8 177 -29z m2689 -12 c0 -38 -13 -61 -135 -236 -75 -106 -134
-196 -131 -199 3 -2 61 -4 128 -3 68 0 129 -3 136 -8 9 -5 12 -24 10 -52 l-3
-44 -215 0 -215 0 -3 34 c-4 35 32 92 210 341 l69 95 -113 2 c-157 4 -158 4
-158 57 0 23 3 46 7 49 3 4 98 7 210 7 l203 0 0 -43z m-1320 -49 l0 -48 60 0
60 0 0 -45 0 -45 -60 0 -60 0 0 -117 c0 -65 5 -125 10 -133 7 -11 25 -14 65
-13 l55 2 0 -39 c0 -50 -18 -60 -109 -60 -64 0 -74 3 -103 29 l-33 29 -3 151
-3 151 -30 0 c-44 0 -41 41 6 70 24 15 38 34 47 62 12 41 28 53 72 53 24 0 26
-3 26 -47z m-882 -67 c86 -44 127 -157 98 -270 -29 -112 -91 -161 -204 -161
-79 0 -119 17 -164 69 -62 72 -71 197 -23 292 17 33 72 77 112 89 43 14 135 5
181 -19z m542 7 c69 -35 75 -55 78 -260 l3 -178 -59 0 -60 0 -4 159 c-3 139
-5 162 -22 180 -21 23 -65 28 -98 10 -37 -20 -48 -69 -48 -214 l0 -135 -60 0
-60 0 0 225 0 225 45 0 c39 0 45 -3 51 -25 7 -27 18 -32 30 -14 11 19 87 49
124 49 20 0 56 -10 80 -22z m815 11 c51 -13 108 -64 130 -116 18 -42 20 -156
4 -204 -15 -43 -65 -97 -106 -115 -42 -18 -144 -18 -188 0 -129 54 -167 260
-69 375 53 62 135 84 229 60z m1187 1 c79 -22 122 -82 134 -187 l7 -63 -147 0
-146 0 0 -26 c0 -15 12 -38 29 -55 26 -26 37 -29 89 -29 33 0 78 7 101 15 l41
14 0 -47 c0 -45 -2 -49 -33 -60 -43 -15 -188 -16 -224 0 -41 17 -92 68 -109
107 -22 52 -18 176 7 228 44 90 146 132 251 103z m516 -47 l-3 -58 -52 -5
c-89 -9 -97 -24 -103 -193 l-5 -142 -54 -3 c-37 -2 -57 1 -62 10 -5 7 -8 109
-8 226 l1 212 49 0 c47 0 48 -1 55 -35 7 -39 18 -44 33 -16 13 24 88 61 124
61 28 0 28 0 25 -57z m353 42 c90 -32 139 -112 139 -226 0 -137 -81 -219 -215
-219 -103 0 -155 33 -196 125 -35 79 -17 222 35 270 66 62 152 80 237 50z
m-7134 -46 c163 -35 358 -145 340 -192 -10 -25 -32 -21 -88 18 -128 88 -363
166 -505 169 -40 0 -70 4 -67 9 2 4 -29 8 -69 9 -73 1 -73 1 -23 9 85 13 306
1 412 -22z m-56 -67 c-7 -2 -18 1 -23 6 -8 8 -4 9 13 5 13 -4 18 -8 10 -11z
m435 -121 c-17 -18 -25 -34 -21 -42 5 -8 4 -10 -4 -5 -6 4 -20 2 -29 -5 -9 -7
3 8 28 34 24 26 46 47 49 47 3 0 -8 -13 -23 -29z m-1667 -111 c0 -9 -6 -4 -14
10 -19 33 -19 49 0 24 8 -10 14 -26 14 -34z m-59 -14 c0 -107 67 -256 163
-362 88 -97 258 -188 431 -230 245 -59 602 -54 789 12 69 24 52 8 -25 -24
-188 -78 -392 -115 -643 -116 -180 0 -224 5 -475 56 -77 15 -178 45 -225 67
-72 33 -100 44 -115 47 -8 2 -19 10 -25 18 -6 8 -24 17 -40 20 -15 3 -41 19
-58 36 -16 16 -33 30 -38 30 -17 0 -31 41 -18 56 6 8 8 14 4 14 -4 0 -2 7 5
15 6 8 9 18 6 23 -3 5 4 18 14 30 11 12 20 23 20 26 0 5 130 199 178 265 18
24 32 50 32 58 0 7 5 13 10 13 6 0 10 -24 10 -54z m3570 -846 l0 -160 -30 0
-30 0 0 160 0 160 30 0 30 0 0 -160z m682 149 c15 -8 27 -8 44 2 32 17 41 5
20 -26 -18 -27 -41 -31 -81 -13 -19 9 -28 9 -37 0 -16 -16 -38 -15 -38 2 0 38
51 57 92 35z m938 -149 l0 -160 -24 0 c-13 0 -26 5 -28 10 -2 7 -15 5 -35 -5
-39 -20 -76 -11 -103 22 -28 36 -28 140 0 176 26 33 64 42 101 23 l29 -14 0
54 c0 53 0 54 30 54 l30 0 0 -160z m2330 0 l0 -160 -30 0 -30 0 0 160 0 160
30 0 30 0 0 -160z m378 133 c-2 -22 -8 -28 -28 -28 -20 0 -26 6 -28 28 -3 24
0 27 28 27 28 0 31 -3 28 -27z m1802 -133 l0 -160 -23 0 c-13 0 -28 5 -34 11
-8 8 -18 6 -37 -6 -30 -20 -76 -13 -102 16 -25 28 -31 126 -11 166 23 44 67
60 108 39 18 -9 33 -16 34 -16 1 0 0 25 -3 55 l-4 55 36 0 36 0 0 -160z
m-6547 139 c41 -11 41 -12 27 -39 -9 -16 -18 -18 -60 -13 -41 5 -51 3 -56 -11
-7 -18 21 -56 40 -56 6 0 28 -14 49 -31 90 -74 10 -178 -118 -152 -36 8 -40
12 -43 41 -3 31 -2 32 23 22 64 -24 134 -1 104 36 -7 8 -26 22 -43 31 -57 29
-76 53 -76 98 0 71 59 100 153 74z m2664 -19 c50 -30 66 -63 66 -130 -1 -106
-55 -150 -183 -150 l-70 0 0 150 0 150 78 0 c59 0 85 -5 109 -20z m3183 -25
c0 -21 5 -25 30 -25 25 0 30 -4 30 -25 0 -21 -5 -25 -30 -25 l-30 0 0 -65 c0
-45 4 -65 13 -66 6 -1 21 -2 32 -3 11 -1 21 -9 23 -18 7 -37 -90 -47 -118 -13
-6 7 -14 46 -17 87 -4 49 -11 77 -22 85 -14 11 -14 15 5 30 12 10 27 28 33 41
16 31 51 30 51 -3z m-5593 -41 c32 -20 46 -52 45 -100 -1 -69 -29 -107 -89
-119 -45 -8 -98 17 -118 56 -21 40 -16 121 10 149 35 39 103 45 152 14z m676
6 c5 -4 6 -16 3 -27 -5 -15 -14 -18 -50 -15 -42 4 -44 3 -55 -31 -24 -70 12
-118 71 -98 40 14 38 15 38 -15 0 -19 -7 -28 -31 -36 -28 -10 -29 -11 -14 -28
9 -10 15 -27 13 -37 -4 -23 -52 -46 -78 -38 -26 8 -26 35 0 35 11 0 20 7 20
15 0 8 -4 15 -10 15 -5 0 -10 8 -10 18 0 11 -11 24 -25 30 -30 14 -45 48 -45
105 0 56 18 88 60 110 35 18 94 16 113 -3z m225 -6 c57 -37 65 -144 15 -190
-54 -50 -146 -36 -179 27 -20 40 -13 122 12 151 35 38 103 43 152 12z m275
-15 c19 -20 27 -40 27 -64 l0 -35 -75 0 c-81 0 -93 -10 -55 -45 16 -14 29 -16
71 -11 48 7 50 6 47 -15 -7 -48 -125 -49 -171 -1 -39 42 -40 125 -2 171 42 49
111 50 158 0z m231 20 c5 -4 6 -15 3 -23 -5 -12 -18 -15 -51 -13 -25 1 -46 -2
-48 -8 -2 -5 19 -22 46 -37 57 -30 72 -59 55 -100 -14 -34 -71 -53 -130 -43
-35 6 -39 10 -39 36 0 26 2 28 26 19 44 -17 84 -13 84 9 0 14 -13 24 -44 36
-111 43 -67 158 54 138 19 -3 39 -9 44 -14z m582 11 c29 0 64 -51 64 -91 l0
-39 -69 0 c-39 0 -72 -4 -76 -10 -9 -15 32 -50 59 -50 14 0 37 5 51 10 25 9
26 8 23 -17 -3 -25 -9 -29 -49 -37 -38 -7 -54 -5 -85 10 -21 10 -45 30 -52 44
-18 35 -10 124 13 150 20 22 72 41 93 34 8 -2 20 -4 28 -4z m687 -3 c43 -18
55 -35 63 -85 l7 -42 -77 0 c-69 0 -76 -2 -76 -20 0 -28 36 -43 86 -36 41 5
44 4 44 -18 0 -20 -6 -25 -43 -30 -65 -10 -118 11 -139 54 -35 70 -10 155 53
177 44 15 44 15 82 0z m237 3 c26 -1 41 -16 34 -34 -5 -13 -17 -16 -52 -14
-65 4 -64 -16 2 -47 53 -25 56 -28 56 -64 0 -60 -54 -90 -134 -75 -29 5 -36
11 -36 30 0 22 3 23 53 21 69 -3 70 18 2 52 -43 22 -50 31 -53 59 -5 53 37 86
93 76 11 -2 27 -4 35 -4z m236 -5 c35 -15 64 -61 64 -105 0 -18 -6 -20 -75
-20 -67 0 -75 -2 -75 -19 0 -32 26 -44 81 -38 47 6 50 5 47 -16 -4 -29 -61
-42 -117 -27 -103 27 -110 200 -9 229 45 13 44 13 84 -4z m307 -17 c14 -16 17
-39 17 -114 l0 -94 -30 0 -29 0 -3 88 -3 87 -33 3 c-27 3 -34 -1 -42 -23 -6
-14 -10 -55 -10 -91 l0 -64 -30 0 -30 0 0 115 0 115 25 0 c15 0 25 -6 25 -14
0 -11 8 -10 37 5 42 21 79 17 106 -13z m498 9 c49 -30 62 -126 25 -182 -35
-53 -147 -53 -182 1 -42 63 -21 163 38 189 35 16 87 12 119 -8z m801 -4 c11
-10 18 -11 23 -3 22 36 118 30 129 -8 5 -18 10 -130 7 -174 -1 -24 -5 -28 -31
-28 l-29 0 -3 88 c-3 82 -4 87 -26 90 -42 6 -52 -14 -52 -99 l0 -79 -30 0
c-30 0 -30 1 -30 53 0 28 -3 69 -6 90 -6 33 -10 37 -36 37 -36 0 -48 -28 -48
-116 l0 -64 -30 0 -30 0 0 115 c0 115 0 115 24 115 13 0 26 -5 28 -11 2 -6 14
-5 33 5 33 18 80 13 107 -11z m367 16 c36 -13 61 -53 61 -99 l0 -30 -75 0
c-81 0 -93 -10 -55 -45 16 -14 30 -17 70 -12 48 6 51 5 48 -15 -4 -27 -48 -41
-105 -33 -61 9 -93 50 -93 119 0 60 18 92 64 112 38 16 45 17 85 3z m280 0
c44 -15 51 -35 51 -138 l0 -91 -30 0 -30 0 0 74 c0 93 -5 106 -41 106 -38 0
-49 -24 -49 -109 l0 -71 -35 0 -36 0 2 115 1 115 29 0 c20 0 29 -5 29 -17 0
-14 2 -15 18 -1 15 14 37 25 53 27 3 1 20 -4 38 -10z m478 -21 c45 -42 52
-120 17 -175 -20 -31 -85 -47 -130 -33 -92 31 -100 186 -11 226 40 17 94 9
124 -18z m616 19 c42 -18 53 -33 61 -84 l6 -43 -75 0 c-68 0 -75 -2 -75 -20 0
-29 35 -43 87 -35 42 6 44 5 41 -17 -4 -32 -62 -46 -118 -29 -50 15 -80 59
-80 116 0 54 18 87 60 107 42 22 51 22 93 5z m-6203 -73 c0 -108 24 -140 70
-94 16 16 20 33 20 95 l0 75 30 0 30 0 0 -105 c0 -58 1 -108 3 -112 4 -13 -45
-15 -53 -3 -6 9 -14 8 -34 -5 -30 -20 -79 -15 -108 12 -15 13 -18 32 -18 115
l0 98 30 0 30 0 0 -76z m3310 1 c13 -41 26 -75 30 -75 4 0 17 34 30 75 23 74
24 75 58 75 18 0 32 -4 30 -8 -1 -4 -21 -56 -43 -115 l-40 -107 -36 0 -35 0
-36 98 c-20 53 -40 105 -43 115 -6 14 -1 17 27 17 34 0 35 -1 58 -75z m641 0
c13 -41 26 -75 29 -75 4 0 17 34 30 75 23 74 24 75 58 75 18 0 32 -4 30 -8 -1
-5 -21 -57 -43 -116 l-40 -107 -34 3 c-35 3 -36 4 -78 113 -24 61 -43 111 -43
113 0 1 15 2 33 2 33 0 34 -1 58 -75z m249 -40 l0 -115 -30 0 -30 0 0 115 0
115 30 0 30 0 0 -115z m-1708 -391 c3 -3 4 -14 1 -25 -4 -13 -14 -19 -34 -19
-16 0 -29 -2 -29 -4 0 -2 -3 -11 -6 -20 -5 -13 1 -16 25 -16 26 0 31 -4 31
-25 0 -21 -5 -25 -30 -25 l-30 0 0 -95 0 -95 -30 0 -30 0 0 95 c0 88 -1 95
-20 95 -12 0 -20 7 -20 16 0 9 9 18 20 21 14 4 20 14 20 34 0 43 31 69 83 69
24 0 46 -3 49 -6z m-475 -27 c6 -4 9 -16 6 -26 -4 -17 -13 -19 -62 -18 -50 2
-56 0 -59 -19 -2 -17 9 -28 52 -53 84 -47 100 -99 47 -152 -24 -23 -38 -29
-75 -29 -66 0 -96 14 -96 46 0 22 4 25 23 21 70 -16 83 -17 101 -4 28 20 14
42 -43 72 -56 28 -71 48 -71 98 0 38 23 64 66 76 29 7 90 1 111 -12z m565 -29
c2 -18 11 -24 36 -26 26 -3 32 -7 32 -28 0 -21 -5 -24 -35 -24 l-35 0 0 -58
c0 -63 11 -82 48 -82 19 0 23 -5 20 -22 -4 -33 -74 -38 -106 -8 -19 18 -22 31
-22 95 0 60 -3 75 -15 75 -22 0 -18 27 5 40 11 6 23 22 26 35 8 32 41 34 46 3z
m-321 -57 c33 -33 40 -79 24 -149 -7 -31 -62 -62 -108 -62 -31 0 -46 7 -73 34
-29 29 -34 41 -34 80 0 51 20 99 47 115 10 6 40 11 66 11 41 0 53 -5 78 -29z
m474 19 c3 -5 14 -42 24 -82 17 -66 20 -70 26 -43 33 139 28 130 67 133 l36 3
15 -68 c9 -37 18 -77 20 -88 1 -11 12 18 23 65 20 83 21 85 52 88 18 2 32 0
32 -5 -1 -4 -15 -57 -33 -118 l-32 -110 -35 0 -34 0 -22 90 c-23 98 -25 97
-49 -17 l-16 -78 -34 0 c-33 0 -35 1 -54 68 -29 101 -41 146 -41 160 0 14 46
17 55 2z m488 -1 c34 -18 37 -28 37 -131 0 -91 -1 -98 -20 -98 -10 0 -23 8
-29 17 -9 17 -10 17 -28 0 -25 -22 -85 -22 -106 1 -51 56 -17 119 71 129 33 4
52 10 52 19 0 23 -34 34 -71 24 -33 -10 -48 -2 -49 27 0 22 106 31 143 12z
m157 -4 c0 -19 9 -19 34 0 11 8 31 15 44 15 20 0 23 -4 20 -27 -2 -22 -9 -29
-30 -31 -42 -5 -58 -36 -58 -114 l0 -68 -30 0 -30 0 0 120 0 120 25 0 c16 0
25 -6 25 -15z m314 -10 c24 -26 42 -87 31 -105 -3 -6 -37 -10 -76 -10 -52 0
-69 -3 -69 -14 0 -27 29 -39 80 -33 48 6 50 5 50 -18 0 -20 -7 -25 -36 -31
-91 -17 -164 29 -164 106 0 87 37 129 113 130 39 0 53 -5 71 -25z"/>
<path d="M6320 2365 l0 -85 28 0 c46 0 101 20 112 40 5 10 10 37 10 59 0 52
-26 71 -97 71 l-53 0 0 -85z"/>
<path d="M6829 2304 c-21 -23 -24 -34 -24 -110 0 -73 3 -86 23 -106 30 -30 95
-30 125 1 19 19 22 33 22 107 0 81 -1 87 -28 110 -38 33 -86 32 -118 -2z"/>
<path d="M8239 2317 c-29 -22 -39 -55 -39 -126 0 -59 4 -74 24 -98 19 -22 32
-28 65 -27 22 1 47 7 55 14 25 20 39 79 33 144 -5 49 -10 65 -32 83 -29 25
-80 30 -106 10z"/>
<path d="M9434 2332 c-16 -11 -44 -55 -44 -69 0 -10 23 -13 85 -13 79 0 85 1
85 20 0 33 -44 70 -82 70 -18 0 -38 -4 -44 -8z"/>
<path d="M10283 2315 c-42 -30 -54 -139 -22 -208 25 -55 123 -55 148 0 32 69
20 178 -22 208 -12 8 -35 15 -52 15 -17 0 -40 -7 -52 -15z"/>
<path d="M6982 1218 c-20 -20 -15 -92 8 -113 17 -15 24 -16 45 -7 22 10 25 18
25 60 0 52 -12 72 -45 72 -12 0 -26 -5 -33 -12z"/>
<path d="M11482 1205 c-18 -38 -15 -72 9 -96 43 -43 91 8 74 78 -9 33 -14 38
-41 41 -24 2 -33 -2 -42 -23z"/>
<path d="M7630 1200 l0 -100 31 0 c44 0 89 47 89 95 0 42 -22 90 -45 99 -9 3
-30 6 -46 6 l-29 0 0 -100z"/>
<path d="M5233 1213 c-15 -37 -8 -95 12 -109 25 -18 31 -18 55 6 22 22 26 70
10 101 -14 25 -68 26 -77 2z"/>
<path d="M6137 1223 c-6 -10 -10 -49 -8 -86 1 -39 43 -58 71 -32 23 21 28 93
8 113 -13 13 -64 16 -71 5z"/>
<path d="M6400 1221 c-15 -30 -14 -31 35 -31 30 0 45 4 45 13 0 37 -62 51 -80
18z"/>
<path d="M7263 1233 c-7 -2 -13 -13 -13 -24 0 -16 7 -19 40 -19 41 0 52 14 28
38 -12 12 -33 14 -55 5z"/>
<path d="M7942 1228 c-24 -24 -13 -38 29 -38 36 0 40 2 37 23 -3 25 -45 36
-66 15z"/>
<path d="M8412 1228 c-24 -24 -13 -38 28 -38 33 0 40 4 40 19 0 29 -45 42 -68
19z"/>
<path d="M9192 1218 c-31 -31 -6 -128 33 -128 36 0 59 72 39 124 -7 19 -55 21
-72 4z"/>
<path d="M10386 1224 c-26 -25 -19 -34 29 -34 46 0 58 13 33 38 -17 17 -44 15
-62 -4z"/>
<path d="M11111 1217 c-12 -15 -15 -36 -13 -80 3 -37 46 -56 73 -31 22 20 26
93 7 112 -16 16 -53 15 -67 -1z"/>
<path d="M11762 1228 c-24 -24 -13 -38 28 -38 33 0 40 4 40 19 0 29 -45 42
-68 19z"/>
<path d="M7780 630 c-21 -13 -20 -94 2 -116 27 -27 66 -11 74 31 13 69 -29
116 -76 85z"/>
<path d="M8762 548 c-23 -23 -14 -48 16 -48 32 0 52 16 52 42 0 21 -49 25 -68
6z"/>
<path d="M9228 639 c-33 -19 -21 -39 22 -39 41 0 52 14 28 38 -14 14 -27 15
-50 1z"/>
</g>
</svg>
